<?xml version="1.0" encoding="utf-8"?>
<svg xmlns="http://www.w3.org/2000/svg" xmlns:xlink="http://www.w3.org/1999/xlink" width="600" height="400" viewBox="0 0 2400 1600">
<defs>
  <clipPath id="clip450">
    <rect x="0" y="0" width="2400" height="1600"/>
  </clipPath>
</defs>
<path clip-path="url(#clip450)" d="
M0 1600 L2400 1600 L2400 0 L0 0  Z
  " fill="#ffffff" fill-rule="evenodd" fill-opacity="1"/>
<defs>
  <clipPath id="clip451">
    <rect x="480" y="0" width="1681" height="1600"/>
  </clipPath>
</defs>
<path clip-path="url(#clip450)" d="
M192.339 1486.45 L2352.76 1486.45 L2352.76 47.2441 L192.339 47.2441  Z
  " fill="#ffffff" fill-rule="evenodd" fill-opacity="1"/>
<defs>
  <clipPath id="clip452">
    <rect x="192" y="47" width="2161" height="1440"/>
  </clipPath>
</defs>
<polyline clip-path="url(#clip452)" style="stroke:#000000; stroke-linecap:butt; stroke-linejoin:round; stroke-width:2; stroke-opacity:0.1; fill:none" points="
  286.356,1486.45 286.356,47.2441 
  "/>
<polyline clip-path="url(#clip452)" style="stroke:#000000; stroke-linecap:butt; stroke-linejoin:round; stroke-width:2; stroke-opacity:0.1; fill:none" points="
  615.086,1486.45 615.086,47.2441 
  "/>
<polyline clip-path="url(#clip452)" style="stroke:#000000; stroke-linecap:butt; stroke-linejoin:round; stroke-width:2; stroke-opacity:0.1; fill:none" points="
  943.817,1486.45 943.817,47.2441 
  "/>
<polyline clip-path="url(#clip452)" style="stroke:#000000; stroke-linecap:butt; stroke-linejoin:round; stroke-width:2; stroke-opacity:0.1; fill:none" points="
  1272.55,1486.45 1272.55,47.2441 
  "/>
<polyline clip-path="url(#clip452)" style="stroke:#000000; stroke-linecap:butt; stroke-linejoin:round; stroke-width:2; stroke-opacity:0.1; fill:none" points="
  1601.28,1486.45 1601.28,47.2441 
  "/>
<polyline clip-path="url(#clip452)" style="stroke:#000000; stroke-linecap:butt; stroke-linejoin:round; stroke-width:2; stroke-opacity:0.1; fill:none" points="
  1930.01,1486.45 1930.01,47.2441 
  "/>
<polyline clip-path="url(#clip452)" style="stroke:#000000; stroke-linecap:butt; stroke-linejoin:round; stroke-width:2; stroke-opacity:0.1; fill:none" points="
  2258.74,1486.45 2258.74,47.2441 
  "/>
<polyline clip-path="url(#clip450)" style="stroke:#000000; stroke-linecap:butt; stroke-linejoin:round; stroke-width:4; stroke-opacity:1; fill:none" points="
  192.339,1486.45 2352.76,1486.45 
  "/>
<polyline clip-path="url(#clip450)" style="stroke:#000000; stroke-linecap:butt; stroke-linejoin:round; stroke-width:4; stroke-opacity:1; fill:none" points="
  286.356,1486.45 286.356,1467.55 
  "/>
<polyline clip-path="url(#clip450)" style="stroke:#000000; stroke-linecap:butt; stroke-linejoin:round; stroke-width:4; stroke-opacity:1; fill:none" points="
  615.086,1486.45 615.086,1467.55 
  "/>
<polyline clip-path="url(#clip450)" style="stroke:#000000; stroke-linecap:butt; stroke-linejoin:round; stroke-width:4; stroke-opacity:1; fill:none" points="
  943.817,1486.45 943.817,1467.55 
  "/>
<polyline clip-path="url(#clip450)" style="stroke:#000000; stroke-linecap:butt; stroke-linejoin:round; stroke-width:4; stroke-opacity:1; fill:none" points="
  1272.55,1486.45 1272.55,1467.55 
  "/>
<polyline clip-path="url(#clip450)" style="stroke:#000000; stroke-linecap:butt; stroke-linejoin:round; stroke-width:4; stroke-opacity:1; fill:none" points="
  1601.28,1486.45 1601.28,1467.55 
  "/>
<polyline clip-path="url(#clip450)" style="stroke:#000000; stroke-linecap:butt; stroke-linejoin:round; stroke-width:4; stroke-opacity:1; fill:none" points="
  1930.01,1486.45 1930.01,1467.55 
  "/>
<polyline clip-path="url(#clip450)" style="stroke:#000000; stroke-linecap:butt; stroke-linejoin:round; stroke-width:4; stroke-opacity:1; fill:none" points="
  2258.74,1486.45 2258.74,1467.55 
  "/>
<path clip-path="url(#clip450)" d="M255.823 1532.02 L285.499 1532.02 L285.499 1535.95 L255.823 1535.95 L255.823 1532.02 Z" fill="#000000" fill-rule="evenodd" fill-opacity="1" /><path clip-path="url(#clip450)" d="M309.758 1530.21 Q313.115 1530.93 314.99 1533.2 Q316.888 1535.47 316.888 1538.8 Q316.888 1543.92 313.369 1546.72 Q309.851 1549.52 303.37 1549.52 Q301.194 1549.52 298.879 1549.08 Q296.587 1548.66 294.133 1547.81 L294.133 1543.29 Q296.078 1544.43 298.393 1545.01 Q300.707 1545.58 303.231 1545.58 Q307.629 1545.58 309.92 1543.85 Q312.235 1542.11 312.235 1538.8 Q312.235 1535.75 310.082 1534.03 Q307.953 1532.3 304.133 1532.3 L300.106 1532.3 L300.106 1528.45 L304.319 1528.45 Q307.768 1528.45 309.596 1527.09 Q311.425 1525.7 311.425 1523.11 Q311.425 1520.45 309.527 1519.03 Q307.652 1517.6 304.133 1517.6 Q302.212 1517.6 300.013 1518.01 Q297.814 1518.43 295.175 1519.31 L295.175 1515.14 Q297.837 1514.4 300.152 1514.03 Q302.49 1513.66 304.55 1513.66 Q309.874 1513.66 312.976 1516.09 Q316.078 1518.5 316.078 1522.62 Q316.078 1525.49 314.434 1527.48 Q312.791 1529.45 309.758 1530.21 Z" fill="#000000" fill-rule="evenodd" fill-opacity="1" /><path clip-path="url(#clip450)" d="M585.029 1532.02 L614.704 1532.02 L614.704 1535.95 L585.029 1535.95 L585.029 1532.02 Z" fill="#000000" fill-rule="evenodd" fill-opacity="1" /><path clip-path="url(#clip450)" d="M628.825 1544.91 L645.144 1544.91 L645.144 1548.85 L623.2 1548.85 L623.2 1544.91 Q625.862 1542.16 630.445 1537.53 Q635.051 1532.88 636.232 1531.53 Q638.477 1529.01 639.357 1527.27 Q640.26 1525.51 640.26 1523.82 Q640.26 1521.07 638.315 1519.33 Q636.394 1517.6 633.292 1517.6 Q631.093 1517.6 628.639 1518.36 Q626.209 1519.13 623.431 1520.68 L623.431 1515.95 Q626.255 1514.82 628.709 1514.24 Q631.163 1513.66 633.2 1513.66 Q638.57 1513.66 641.764 1516.35 Q644.959 1519.03 644.959 1523.52 Q644.959 1525.65 644.149 1527.57 Q643.362 1529.47 641.255 1532.07 Q640.676 1532.74 637.575 1535.95 Q634.473 1539.15 628.825 1544.91 Z" fill="#000000" fill-rule="evenodd" fill-opacity="1" /><path clip-path="url(#clip450)" d="M913.574 1532.02 L943.25 1532.02 L943.25 1535.95 L913.574 1535.95 L913.574 1532.02 Z" fill="#000000" fill-rule="evenodd" fill-opacity="1" /><path clip-path="url(#clip450)" d="M954.152 1544.91 L961.791 1544.91 L961.791 1518.55 L953.481 1520.21 L953.481 1515.95 L961.745 1514.29 L966.421 1514.29 L966.421 1544.91 L974.06 1544.91 L974.06 1548.85 L954.152 1548.85 L954.152 1544.91 Z" fill="#000000" fill-rule="evenodd" fill-opacity="1" /><path clip-path="url(#clip450)" d="M1272.55 1517.37 Q1268.94 1517.37 1267.11 1520.93 Q1265.3 1524.47 1265.3 1531.6 Q1265.3 1538.71 1267.11 1542.27 Q1268.94 1545.82 1272.55 1545.82 Q1276.18 1545.82 1277.99 1542.27 Q1279.82 1538.71 1279.82 1531.6 Q1279.82 1524.47 1277.99 1520.93 Q1276.18 1517.37 1272.55 1517.37 M1272.55 1513.66 Q1278.36 1513.66 1281.41 1518.27 Q1284.49 1522.85 1284.49 1531.6 Q1284.49 1540.33 1281.41 1544.94 Q1278.36 1549.52 1272.55 1549.52 Q1266.74 1549.52 1263.66 1544.94 Q1260.6 1540.33 1260.6 1531.6 Q1260.6 1522.85 1263.66 1518.27 Q1266.74 1513.66 1272.55 1513.66 Z" fill="#000000" fill-rule="evenodd" fill-opacity="1" /><path clip-path="url(#clip450)" d="M1591.66 1544.91 L1599.3 1544.91 L1599.3 1518.55 L1590.99 1520.21 L1590.99 1515.95 L1599.25 1514.29 L1603.93 1514.29 L1603.93 1544.91 L1611.57 1544.91 L1611.57 1548.85 L1591.66 1548.85 L1591.66 1544.91 Z" fill="#000000" fill-rule="evenodd" fill-opacity="1" /><path clip-path="url(#clip450)" d="M1924.66 1544.91 L1940.98 1544.91 L1940.98 1548.85 L1919.04 1548.85 L1919.04 1544.91 Q1921.7 1542.16 1926.28 1537.53 Q1930.89 1532.88 1932.07 1531.53 Q1934.31 1529.01 1935.19 1527.27 Q1936.1 1525.51 1936.1 1523.82 Q1936.1 1521.07 1934.15 1519.33 Q1932.23 1517.6 1929.13 1517.6 Q1926.93 1517.6 1924.48 1518.36 Q1922.05 1519.13 1919.27 1520.68 L1919.27 1515.95 Q1922.09 1514.82 1924.55 1514.24 Q1927 1513.66 1929.04 1513.66 Q1934.41 1513.66 1937.6 1516.35 Q1940.8 1519.03 1940.8 1523.52 Q1940.8 1525.65 1939.99 1527.57 Q1939.2 1529.47 1937.09 1532.07 Q1936.51 1532.74 1933.41 1535.95 Q1930.31 1539.15 1924.66 1544.91 Z" fill="#000000" fill-rule="evenodd" fill-opacity="1" /><path clip-path="url(#clip450)" d="M2262.99 1530.21 Q2266.34 1530.93 2268.22 1533.2 Q2270.12 1535.47 2270.12 1538.8 Q2270.12 1543.92 2266.6 1546.72 Q2263.08 1549.52 2256.6 1549.52 Q2254.42 1549.52 2252.11 1549.08 Q2249.82 1548.66 2247.36 1547.81 L2247.36 1543.29 Q2249.31 1544.43 2251.62 1545.01 Q2253.94 1545.58 2256.46 1545.58 Q2260.86 1545.58 2263.15 1543.85 Q2265.46 1542.11 2265.46 1538.8 Q2265.46 1535.75 2263.31 1534.03 Q2261.18 1532.3 2257.36 1532.3 L2253.33 1532.3 L2253.33 1528.45 L2257.55 1528.45 Q2261 1528.45 2262.82 1527.09 Q2264.65 1525.7 2264.65 1523.11 Q2264.65 1520.45 2262.76 1519.03 Q2260.88 1517.6 2257.36 1517.6 Q2255.44 1517.6 2253.24 1518.01 Q2251.04 1518.43 2248.4 1519.31 L2248.4 1515.14 Q2251.07 1514.4 2253.38 1514.03 Q2255.72 1513.66 2257.78 1513.66 Q2263.1 1513.66 2266.2 1516.09 Q2269.31 1518.5 2269.31 1522.62 Q2269.31 1525.49 2267.66 1527.48 Q2266.02 1529.45 2262.99 1530.21 Z" fill="#000000" fill-rule="evenodd" fill-opacity="1" /><polyline clip-path="url(#clip452)" style="stroke:#000000; stroke-linecap:butt; stroke-linejoin:round; stroke-width:2; stroke-opacity:0.1; fill:none" points="
  192.339,1364.26 2352.76,1364.26 
  "/>
<polyline clip-path="url(#clip452)" style="stroke:#000000; stroke-linecap:butt; stroke-linejoin:round; stroke-width:2; stroke-opacity:0.1; fill:none" points="
  192.339,1165.92 2352.76,1165.92 
  "/>
<polyline clip-path="url(#clip452)" style="stroke:#000000; stroke-linecap:butt; stroke-linejoin:round; stroke-width:2; stroke-opacity:0.1; fill:none" points="
  192.339,967.59 2352.76,967.59 
  "/>
<polyline clip-path="url(#clip452)" style="stroke:#000000; stroke-linecap:butt; stroke-linejoin:round; stroke-width:2; stroke-opacity:0.1; fill:none" points="
  192.339,769.258 2352.76,769.258 
  "/>
<polyline clip-path="url(#clip452)" style="stroke:#000000; stroke-linecap:butt; stroke-linejoin:round; stroke-width:2; stroke-opacity:0.1; fill:none" points="
  192.339,570.925 2352.76,570.925 
  "/>
<polyline clip-path="url(#clip452)" style="stroke:#000000; stroke-linecap:butt; stroke-linejoin:round; stroke-width:2; stroke-opacity:0.1; fill:none" points="
  192.339,372.592 2352.76,372.592 
  "/>
<polyline clip-path="url(#clip452)" style="stroke:#000000; stroke-linecap:butt; stroke-linejoin:round; stroke-width:2; stroke-opacity:0.1; fill:none" points="
  192.339,174.259 2352.76,174.259 
  "/>
<polyline clip-path="url(#clip450)" style="stroke:#000000; stroke-linecap:butt; stroke-linejoin:round; stroke-width:4; stroke-opacity:1; fill:none" points="
  192.339,1486.45 192.339,47.2441 
  "/>
<polyline clip-path="url(#clip450)" style="stroke:#000000; stroke-linecap:butt; stroke-linejoin:round; stroke-width:4; stroke-opacity:1; fill:none" points="
  192.339,1364.26 211.236,1364.26 
  "/>
<polyline clip-path="url(#clip450)" style="stroke:#000000; stroke-linecap:butt; stroke-linejoin:round; stroke-width:4; stroke-opacity:1; fill:none" points="
  192.339,1165.92 211.236,1165.92 
  "/>
<polyline clip-path="url(#clip450)" style="stroke:#000000; stroke-linecap:butt; stroke-linejoin:round; stroke-width:4; stroke-opacity:1; fill:none" points="
  192.339,967.59 211.236,967.59 
  "/>
<polyline clip-path="url(#clip450)" style="stroke:#000000; stroke-linecap:butt; stroke-linejoin:round; stroke-width:4; stroke-opacity:1; fill:none" points="
  192.339,769.258 211.236,769.258 
  "/>
<polyline clip-path="url(#clip450)" style="stroke:#000000; stroke-linecap:butt; stroke-linejoin:round; stroke-width:4; stroke-opacity:1; fill:none" points="
  192.339,570.925 211.236,570.925 
  "/>
<polyline clip-path="url(#clip450)" style="stroke:#000000; stroke-linecap:butt; stroke-linejoin:round; stroke-width:4; stroke-opacity:1; fill:none" points="
  192.339,372.592 211.236,372.592 
  "/>
<polyline clip-path="url(#clip450)" style="stroke:#000000; stroke-linecap:butt; stroke-linejoin:round; stroke-width:4; stroke-opacity:1; fill:none" points="
  192.339,174.259 211.236,174.259 
  "/>
<path clip-path="url(#clip450)" d="M50.9921 1364.71 L80.6679 1364.71 L80.6679 1368.64 L50.9921 1368.64 L50.9921 1364.71 Z" fill="#000000" fill-rule="evenodd" fill-opacity="1" /><path clip-path="url(#clip450)" d="M100.76 1350.05 Q97.1493 1350.05 95.3206 1353.62 Q93.515 1357.16 93.515 1364.29 Q93.515 1371.4 95.3206 1374.96 Q97.1493 1378.5 100.76 1378.5 Q104.395 1378.5 106.2 1374.96 Q108.029 1371.4 108.029 1364.29 Q108.029 1357.16 106.2 1353.62 Q104.395 1350.05 100.76 1350.05 M100.76 1346.35 Q106.571 1346.35 109.626 1350.96 Q112.705 1355.54 112.705 1364.29 Q112.705 1373.02 109.626 1377.62 Q106.571 1382.21 100.76 1382.21 Q94.9502 1382.21 91.8715 1377.62 Q88.816 1373.02 88.816 1364.29 Q88.816 1355.54 91.8715 1350.96 Q94.9502 1346.35 100.76 1346.35 Z" fill="#000000" fill-rule="evenodd" fill-opacity="1" /><path clip-path="url(#clip450)" d="M120.922 1375.66 L125.807 1375.66 L125.807 1381.54 L120.922 1381.54 L120.922 1375.66 Z" fill="#000000" fill-rule="evenodd" fill-opacity="1" /><path clip-path="url(#clip450)" d="M140.019 1377.6 L156.339 1377.6 L156.339 1381.54 L134.394 1381.54 L134.394 1377.6 Q137.056 1374.85 141.64 1370.22 Q146.246 1365.56 147.427 1364.22 Q149.672 1361.7 150.552 1359.96 Q151.455 1358.2 151.455 1356.51 Q151.455 1353.76 149.51 1352.02 Q147.589 1350.29 144.487 1350.29 Q142.288 1350.29 139.834 1351.05 Q137.404 1351.81 134.626 1353.36 L134.626 1348.64 Q137.45 1347.51 139.904 1346.93 Q142.357 1346.35 144.394 1346.35 Q149.765 1346.35 152.959 1349.04 Q156.154 1351.72 156.154 1356.21 Q156.154 1358.34 155.343 1360.26 Q154.556 1362.16 152.45 1364.75 Q151.871 1365.42 148.769 1368.64 Q145.668 1371.84 140.019 1377.6 Z" fill="#000000" fill-rule="evenodd" fill-opacity="1" /><path clip-path="url(#clip450)" d="M99.1632 1151.72 Q95.5521 1151.72 93.7234 1155.29 Q91.9178 1158.83 91.9178 1165.96 Q91.9178 1173.06 93.7234 1176.63 Q95.5521 1180.17 99.1632 1180.17 Q102.797 1180.17 104.603 1176.63 Q106.432 1173.06 106.432 1165.96 Q106.432 1158.83 104.603 1155.29 Q102.797 1151.72 99.1632 1151.72 M99.1632 1148.02 Q104.973 1148.02 108.029 1152.62 Q111.108 1157.21 111.108 1165.96 Q111.108 1174.68 108.029 1179.29 Q104.973 1183.87 99.1632 1183.87 Q93.353 1183.87 90.2743 1179.29 Q87.2188 1174.68 87.2188 1165.96 Q87.2188 1157.21 90.2743 1152.62 Q93.353 1148.02 99.1632 1148.02 Z" fill="#000000" fill-rule="evenodd" fill-opacity="1" /><path clip-path="url(#clip450)" d="M119.325 1177.32 L124.209 1177.32 L124.209 1183.2 L119.325 1183.2 L119.325 1177.32 Z" fill="#000000" fill-rule="evenodd" fill-opacity="1" /><path clip-path="url(#clip450)" d="M144.394 1151.72 Q140.783 1151.72 138.955 1155.29 Q137.149 1158.83 137.149 1165.96 Q137.149 1173.06 138.955 1176.63 Q140.783 1180.17 144.394 1180.17 Q148.029 1180.17 149.834 1176.63 Q151.663 1173.06 151.663 1165.96 Q151.663 1158.83 149.834 1155.29 Q148.029 1151.72 144.394 1151.72 M144.394 1148.02 Q150.205 1148.02 153.26 1152.62 Q156.339 1157.21 156.339 1165.96 Q156.339 1174.68 153.26 1179.29 Q150.205 1183.87 144.394 1183.87 Q138.584 1183.87 135.506 1179.29 Q132.45 1174.68 132.45 1165.96 Q132.45 1157.21 135.506 1152.62 Q138.584 1148.02 144.394 1148.02 Z" fill="#000000" fill-rule="evenodd" fill-opacity="1" /><path clip-path="url(#clip450)" d="M100.76 953.389 Q97.1493 953.389 95.3206 956.954 Q93.515 960.496 93.515 967.625 Q93.515 974.732 95.3206 978.296 Q97.1493 981.838 100.76 981.838 Q104.395 981.838 106.2 978.296 Q108.029 974.732 108.029 967.625 Q108.029 960.496 106.2 956.954 Q104.395 953.389 100.76 953.389 M100.76 949.685 Q106.571 949.685 109.626 954.292 Q112.705 958.875 112.705 967.625 Q112.705 976.352 109.626 980.958 Q106.571 985.542 100.76 985.542 Q94.9502 985.542 91.8715 980.958 Q88.816 976.352 88.816 967.625 Q88.816 958.875 91.8715 954.292 Q94.9502 949.685 100.76 949.685 Z" fill="#000000" fill-rule="evenodd" fill-opacity="1" /><path clip-path="url(#clip450)" d="M120.922 978.991 L125.807 978.991 L125.807 984.87 L120.922 984.87 L120.922 978.991 Z" fill="#000000" fill-rule="evenodd" fill-opacity="1" /><path clip-path="url(#clip450)" d="M140.019 980.935 L156.339 980.935 L156.339 984.87 L134.394 984.87 L134.394 980.935 Q137.056 978.181 141.64 973.551 Q146.246 968.898 147.427 967.556 Q149.672 965.033 150.552 963.297 Q151.455 961.537 151.455 959.847 Q151.455 957.093 149.51 955.357 Q147.589 953.621 144.487 953.621 Q142.288 953.621 139.834 954.385 Q137.404 955.148 134.626 956.699 L134.626 951.977 Q137.45 950.843 139.904 950.264 Q142.357 949.685 144.394 949.685 Q149.765 949.685 152.959 952.371 Q156.154 955.056 156.154 959.547 Q156.154 961.676 155.343 963.597 Q154.556 965.496 152.45 968.088 Q151.871 968.759 148.769 971.977 Q145.668 975.171 140.019 980.935 Z" fill="#000000" fill-rule="evenodd" fill-opacity="1" /><path clip-path="url(#clip450)" d="M98.6771 755.056 Q95.066 755.056 93.2373 758.621 Q91.4317 762.163 91.4317 769.292 Q91.4317 776.399 93.2373 779.964 Q95.066 783.505 98.6771 783.505 Q102.311 783.505 104.117 779.964 Q105.946 776.399 105.946 769.292 Q105.946 762.163 104.117 758.621 Q102.311 755.056 98.6771 755.056 M98.6771 751.353 Q104.487 751.353 107.543 755.959 Q110.621 760.542 110.621 769.292 Q110.621 778.019 107.543 782.626 Q104.487 787.209 98.6771 787.209 Q92.8669 787.209 89.7882 782.626 Q86.7327 778.019 86.7327 769.292 Q86.7327 760.542 89.7882 755.959 Q92.8669 751.353 98.6771 751.353 Z" fill="#000000" fill-rule="evenodd" fill-opacity="1" /><path clip-path="url(#clip450)" d="M118.839 780.658 L123.723 780.658 L123.723 786.538 L118.839 786.538 L118.839 780.658 Z" fill="#000000" fill-rule="evenodd" fill-opacity="1" /><path clip-path="url(#clip450)" d="M146.756 756.052 L134.95 774.501 L146.756 774.501 L146.756 756.052 M145.529 751.978 L151.408 751.978 L151.408 774.501 L156.339 774.501 L156.339 778.39 L151.408 778.39 L151.408 786.538 L146.756 786.538 L146.756 778.39 L131.154 778.39 L131.154 773.876 L145.529 751.978 Z" fill="#000000" fill-rule="evenodd" fill-opacity="1" /><path clip-path="url(#clip450)" d="M99.0011 556.724 Q95.39 556.724 93.5613 560.288 Q91.7558 563.83 91.7558 570.96 Q91.7558 578.066 93.5613 581.631 Q95.39 585.173 99.0011 585.173 Q102.635 585.173 104.441 581.631 Q106.27 578.066 106.27 570.96 Q106.27 563.83 104.441 560.288 Q102.635 556.724 99.0011 556.724 M99.0011 553.02 Q104.811 553.02 107.867 557.626 Q110.946 562.21 110.946 570.96 Q110.946 579.686 107.867 584.293 Q104.811 588.876 99.0011 588.876 Q93.191 588.876 90.1123 584.293 Q87.0567 579.686 87.0567 570.96 Q87.0567 562.21 90.1123 557.626 Q93.191 553.02 99.0011 553.02 Z" fill="#000000" fill-rule="evenodd" fill-opacity="1" /><path clip-path="url(#clip450)" d="M119.163 582.325 L124.047 582.325 L124.047 588.205 L119.163 588.205 L119.163 582.325 Z" fill="#000000" fill-rule="evenodd" fill-opacity="1" /><path clip-path="url(#clip450)" d="M144.811 569.061 Q141.663 569.061 139.811 571.214 Q137.982 573.367 137.982 577.117 Q137.982 580.844 139.811 583.02 Q141.663 585.173 144.811 585.173 Q147.959 585.173 149.788 583.02 Q151.64 580.844 151.64 577.117 Q151.64 573.367 149.788 571.214 Q147.959 569.061 144.811 569.061 M154.093 554.409 L154.093 558.668 Q152.334 557.835 150.529 557.395 Q148.746 556.955 146.987 556.955 Q142.357 556.955 139.904 560.08 Q137.473 563.205 137.126 569.524 Q138.492 567.511 140.552 566.446 Q142.612 565.358 145.089 565.358 Q150.297 565.358 153.306 568.529 Q156.339 571.677 156.339 577.117 Q156.339 582.441 153.191 585.659 Q150.043 588.876 144.811 588.876 Q138.816 588.876 135.644 584.293 Q132.473 579.686 132.473 570.96 Q132.473 562.765 136.362 557.904 Q140.251 553.02 146.802 553.02 Q148.561 553.02 150.343 553.367 Q152.149 553.714 154.093 554.409 Z" fill="#000000" fill-rule="evenodd" fill-opacity="1" /><path clip-path="url(#clip450)" d="M99.2558 358.391 Q95.6447 358.391 93.816 361.956 Q92.0104 365.497 92.0104 372.627 Q92.0104 379.733 93.816 383.298 Q95.6447 386.84 99.2558 386.84 Q102.89 386.84 104.696 383.298 Q106.524 379.733 106.524 372.627 Q106.524 365.497 104.696 361.956 Q102.89 358.391 99.2558 358.391 M99.2558 354.687 Q105.066 354.687 108.121 359.294 Q111.2 363.877 111.2 372.627 Q111.2 381.354 108.121 385.96 Q105.066 390.543 99.2558 390.543 Q93.4456 390.543 90.3669 385.96 Q87.3114 381.354 87.3114 372.627 Q87.3114 363.877 90.3669 359.294 Q93.4456 354.687 99.2558 354.687 Z" fill="#000000" fill-rule="evenodd" fill-opacity="1" /><path clip-path="url(#clip450)" d="M119.418 383.993 L124.302 383.993 L124.302 389.872 L119.418 389.872 L119.418 383.993 Z" fill="#000000" fill-rule="evenodd" fill-opacity="1" /><path clip-path="url(#clip450)" d="M144.487 373.46 Q141.154 373.46 139.232 375.243 Q137.334 377.025 137.334 380.15 Q137.334 383.275 139.232 385.057 Q141.154 386.84 144.487 386.84 Q147.82 386.84 149.742 385.057 Q151.663 383.252 151.663 380.15 Q151.663 377.025 149.742 375.243 Q147.843 373.46 144.487 373.46 M139.811 371.469 Q136.802 370.729 135.112 368.669 Q133.445 366.608 133.445 363.645 Q133.445 359.502 136.385 357.095 Q139.348 354.687 144.487 354.687 Q149.649 354.687 152.589 357.095 Q155.529 359.502 155.529 363.645 Q155.529 366.608 153.839 368.669 Q152.172 370.729 149.186 371.469 Q152.566 372.256 154.441 374.548 Q156.339 376.84 156.339 380.15 Q156.339 385.173 153.26 387.858 Q150.205 390.543 144.487 390.543 Q138.769 390.543 135.691 387.858 Q132.635 385.173 132.635 380.15 Q132.635 376.84 134.533 374.548 Q136.431 372.256 139.811 371.469 M138.098 364.085 Q138.098 366.77 139.765 368.275 Q141.455 369.78 144.487 369.78 Q147.496 369.78 149.186 368.275 Q150.899 366.77 150.899 364.085 Q150.899 361.4 149.186 359.895 Q147.496 358.391 144.487 358.391 Q141.455 358.391 139.765 359.895 Q138.098 361.4 138.098 364.085 Z" fill="#000000" fill-rule="evenodd" fill-opacity="1" /><path clip-path="url(#clip450)" d="M89.9734 187.604 L97.6122 187.604 L97.6122 161.239 L89.3021 162.905 L89.3021 158.646 L97.566 156.979 L102.242 156.979 L102.242 187.604 L109.881 187.604 L109.881 191.539 L89.9734 191.539 L89.9734 187.604 Z" fill="#000000" fill-rule="evenodd" fill-opacity="1" /><path clip-path="url(#clip450)" d="M119.325 185.66 L124.209 185.66 L124.209 191.539 L119.325 191.539 L119.325 185.66 Z" fill="#000000" fill-rule="evenodd" fill-opacity="1" /><path clip-path="url(#clip450)" d="M144.394 160.058 Q140.783 160.058 138.955 163.623 Q137.149 167.164 137.149 174.294 Q137.149 181.4 138.955 184.965 Q140.783 188.507 144.394 188.507 Q148.029 188.507 149.834 184.965 Q151.663 181.4 151.663 174.294 Q151.663 167.164 149.834 163.623 Q148.029 160.058 144.394 160.058 M144.394 156.354 Q150.205 156.354 153.26 160.961 Q156.339 165.544 156.339 174.294 Q156.339 183.021 153.26 187.627 Q150.205 192.211 144.394 192.211 Q138.584 192.211 135.506 187.627 Q132.45 183.021 132.45 174.294 Q132.45 165.544 135.506 160.961 Q138.584 156.354 144.394 156.354 Z" fill="#000000" fill-rule="evenodd" fill-opacity="1" /><circle clip-path="url(#clip452)" cx="628.711" cy="1201.33" r="14" fill="#009af9" fill-rule="evenodd" fill-opacity="1" stroke="#000000" stroke-opacity="1" stroke-width="3.2"/>
<circle clip-path="url(#clip452)" cx="920.796" cy="1285.21" r="14" fill="#009af9" fill-rule="evenodd" fill-opacity="1" stroke="#000000" stroke-opacity="1" stroke-width="3.2"/>
<circle clip-path="url(#clip452)" cx="796.385" cy="1253.38" r="14" fill="#009af9" fill-rule="evenodd" fill-opacity="1" stroke="#000000" stroke-opacity="1" stroke-width="3.2"/>
<circle clip-path="url(#clip452)" cx="614.637" cy="1164.42" r="14" fill="#009af9" fill-rule="evenodd" fill-opacity="1" stroke="#000000" stroke-opacity="1" stroke-width="3.2"/>
<circle clip-path="url(#clip452)" cx="1325.83" cy="238.005" r="14" fill="#009af9" fill-rule="evenodd" fill-opacity="1" stroke="#000000" stroke-opacity="1" stroke-width="3.2"/>
<circle clip-path="url(#clip452)" cx="1239.06" cy="133.541" r="14" fill="#009af9" fill-rule="evenodd" fill-opacity="1" stroke="#000000" stroke-opacity="1" stroke-width="3.2"/>
<circle clip-path="url(#clip452)" cx="1056.89" cy="828.537" r="14" fill="#009af9" fill-rule="evenodd" fill-opacity="1" stroke="#000000" stroke-opacity="1" stroke-width="3.2"/>
<circle clip-path="url(#clip452)" cx="1869.71" cy="1311.24" r="14" fill="#009af9" fill-rule="evenodd" fill-opacity="1" stroke="#000000" stroke-opacity="1" stroke-width="3.2"/>
<circle clip-path="url(#clip452)" cx="2220.79" cy="1322.79" r="14" fill="#009af9" fill-rule="evenodd" fill-opacity="1" stroke="#000000" stroke-opacity="1" stroke-width="3.2"/>
<circle clip-path="url(#clip452)" cx="472.611" cy="937.089" r="14" fill="#009af9" fill-rule="evenodd" fill-opacity="1" stroke="#000000" stroke-opacity="1" stroke-width="3.2"/>
<circle clip-path="url(#clip452)" cx="1360.83" cy="254.754" r="14" fill="#009af9" fill-rule="evenodd" fill-opacity="1" stroke="#000000" stroke-opacity="1" stroke-width="3.2"/>
<circle clip-path="url(#clip452)" cx="1142.2" cy="375.673" r="14" fill="#009af9" fill-rule="evenodd" fill-opacity="1" stroke="#000000" stroke-opacity="1" stroke-width="3.2"/>
<circle clip-path="url(#clip452)" cx="702.979" cy="1445.72" r="14" fill="#009af9" fill-rule="evenodd" fill-opacity="1" stroke="#000000" stroke-opacity="1" stroke-width="3.2"/>
<circle clip-path="url(#clip452)" cx="648.148" cy="1322.41" r="14" fill="#009af9" fill-rule="evenodd" fill-opacity="1" stroke="#000000" stroke-opacity="1" stroke-width="3.2"/>
<circle clip-path="url(#clip452)" cx="971.775" cy="983.865" r="14" fill="#009af9" fill-rule="evenodd" fill-opacity="1" stroke="#000000" stroke-opacity="1" stroke-width="3.2"/>
<circle clip-path="url(#clip452)" cx="1514.45" cy="918.222" r="14" fill="#009af9" fill-rule="evenodd" fill-opacity="1" stroke="#000000" stroke-opacity="1" stroke-width="3.2"/>
<circle clip-path="url(#clip452)" cx="339.58" cy="1057.79" r="14" fill="#009af9" fill-rule="evenodd" fill-opacity="1" stroke="#000000" stroke-opacity="1" stroke-width="3.2"/>
<circle clip-path="url(#clip452)" cx="2216.61" cy="1165.86" r="14" fill="#009af9" fill-rule="evenodd" fill-opacity="1" stroke="#000000" stroke-opacity="1" stroke-width="3.2"/>
<circle clip-path="url(#clip452)" cx="2237.66" cy="1149.42" r="14" fill="#009af9" fill-rule="evenodd" fill-opacity="1" stroke="#000000" stroke-opacity="1" stroke-width="3.2"/>
<circle clip-path="url(#clip452)" cx="395.425" cy="875.616" r="14" fill="#009af9" fill-rule="evenodd" fill-opacity="1" stroke="#000000" stroke-opacity="1" stroke-width="3.2"/>
<circle clip-path="url(#clip452)" cx="1538.78" cy="964.119" r="14" fill="#009af9" fill-rule="evenodd" fill-opacity="1" stroke="#000000" stroke-opacity="1" stroke-width="3.2"/>
<circle clip-path="url(#clip452)" cx="1937.9" cy="1058.65" r="14" fill="#009af9" fill-rule="evenodd" fill-opacity="1" stroke="#000000" stroke-opacity="1" stroke-width="3.2"/>
<circle clip-path="url(#clip452)" cx="1588.05" cy="985.899" r="14" fill="#009af9" fill-rule="evenodd" fill-opacity="1" stroke="#000000" stroke-opacity="1" stroke-width="3.2"/>
<circle clip-path="url(#clip452)" cx="1887.97" cy="1433.34" r="14" fill="#009af9" fill-rule="evenodd" fill-opacity="1" stroke="#000000" stroke-opacity="1" stroke-width="3.2"/>
<circle clip-path="url(#clip452)" cx="2053.29" cy="1079.51" r="14" fill="#009af9" fill-rule="evenodd" fill-opacity="1" stroke="#000000" stroke-opacity="1" stroke-width="3.2"/>
<circle clip-path="url(#clip452)" cx="1430.76" cy="613.733" r="14" fill="#009af9" fill-rule="evenodd" fill-opacity="1" stroke="#000000" stroke-opacity="1" stroke-width="3.2"/>
<circle clip-path="url(#clip452)" cx="1281.31" cy="87.9763" r="14" fill="#009af9" fill-rule="evenodd" fill-opacity="1" stroke="#000000" stroke-opacity="1" stroke-width="3.2"/>
<circle clip-path="url(#clip452)" cx="429.67" cy="1268.23" r="14" fill="#009af9" fill-rule="evenodd" fill-opacity="1" stroke="#000000" stroke-opacity="1" stroke-width="3.2"/>
<circle clip-path="url(#clip452)" cx="1909.76" cy="1055.9" r="14" fill="#009af9" fill-rule="evenodd" fill-opacity="1" stroke="#000000" stroke-opacity="1" stroke-width="3.2"/>
<circle clip-path="url(#clip452)" cx="977.509" cy="995.635" r="14" fill="#009af9" fill-rule="evenodd" fill-opacity="1" stroke="#000000" stroke-opacity="1" stroke-width="3.2"/>
<circle clip-path="url(#clip452)" cx="466.996" cy="959.079" r="14" fill="#009af9" fill-rule="evenodd" fill-opacity="1" stroke="#000000" stroke-opacity="1" stroke-width="3.2"/>
<circle clip-path="url(#clip452)" cx="2131.48" cy="1074.32" r="14" fill="#009af9" fill-rule="evenodd" fill-opacity="1" stroke="#000000" stroke-opacity="1" stroke-width="3.2"/>
<circle clip-path="url(#clip452)" cx="2034.85" cy="951.191" r="14" fill="#009af9" fill-rule="evenodd" fill-opacity="1" stroke="#000000" stroke-opacity="1" stroke-width="3.2"/>
<circle clip-path="url(#clip452)" cx="1357.22" cy="255.462" r="14" fill="#009af9" fill-rule="evenodd" fill-opacity="1" stroke="#000000" stroke-opacity="1" stroke-width="3.2"/>
<circle clip-path="url(#clip452)" cx="949.229" cy="1172.48" r="14" fill="#009af9" fill-rule="evenodd" fill-opacity="1" stroke="#000000" stroke-opacity="1" stroke-width="3.2"/>
<circle clip-path="url(#clip452)" cx="795.743" cy="1402.74" r="14" fill="#009af9" fill-rule="evenodd" fill-opacity="1" stroke="#000000" stroke-opacity="1" stroke-width="3.2"/>
<circle clip-path="url(#clip452)" cx="1278.14" cy="99.9495" r="14" fill="#009af9" fill-rule="evenodd" fill-opacity="1" stroke="#000000" stroke-opacity="1" stroke-width="3.2"/>
<circle clip-path="url(#clip452)" cx="370.148" cy="1126.23" r="14" fill="#009af9" fill-rule="evenodd" fill-opacity="1" stroke="#000000" stroke-opacity="1" stroke-width="3.2"/>
<circle clip-path="url(#clip452)" cx="1079.69" cy="721.23" r="14" fill="#009af9" fill-rule="evenodd" fill-opacity="1" stroke="#000000" stroke-opacity="1" stroke-width="3.2"/>
<circle clip-path="url(#clip452)" cx="1592.11" cy="1081" r="14" fill="#009af9" fill-rule="evenodd" fill-opacity="1" stroke="#000000" stroke-opacity="1" stroke-width="3.2"/>
<circle clip-path="url(#clip452)" cx="1968.43" cy="1085.75" r="14" fill="#009af9" fill-rule="evenodd" fill-opacity="1" stroke="#000000" stroke-opacity="1" stroke-width="3.2"/>
<circle clip-path="url(#clip452)" cx="608.908" cy="1071.9" r="14" fill="#009af9" fill-rule="evenodd" fill-opacity="1" stroke="#000000" stroke-opacity="1" stroke-width="3.2"/>
<circle clip-path="url(#clip452)" cx="2255.41" cy="1314.85" r="14" fill="#009af9" fill-rule="evenodd" fill-opacity="1" stroke="#000000" stroke-opacity="1" stroke-width="3.2"/>
<circle clip-path="url(#clip452)" cx="697.142" cy="1409.58" r="14" fill="#009af9" fill-rule="evenodd" fill-opacity="1" stroke="#000000" stroke-opacity="1" stroke-width="3.2"/>
<circle clip-path="url(#clip452)" cx="473.762" cy="944.807" r="14" fill="#009af9" fill-rule="evenodd" fill-opacity="1" stroke="#000000" stroke-opacity="1" stroke-width="3.2"/>
<circle clip-path="url(#clip452)" cx="2236.26" cy="1219.09" r="14" fill="#009af9" fill-rule="evenodd" fill-opacity="1" stroke="#000000" stroke-opacity="1" stroke-width="3.2"/>
<circle clip-path="url(#clip452)" cx="1294.75" cy="326.136" r="14" fill="#009af9" fill-rule="evenodd" fill-opacity="1" stroke="#000000" stroke-opacity="1" stroke-width="3.2"/>
<circle clip-path="url(#clip452)" cx="979.578" cy="998.359" r="14" fill="#009af9" fill-rule="evenodd" fill-opacity="1" stroke="#000000" stroke-opacity="1" stroke-width="3.2"/>
<circle clip-path="url(#clip452)" cx="1710.38" cy="1422.55" r="14" fill="#009af9" fill-rule="evenodd" fill-opacity="1" stroke="#000000" stroke-opacity="1" stroke-width="3.2"/>
<circle clip-path="url(#clip452)" cx="1020.77" cy="901.128" r="14" fill="#009af9" fill-rule="evenodd" fill-opacity="1" stroke="#000000" stroke-opacity="1" stroke-width="3.2"/>
<polyline clip-path="url(#clip452)" style="stroke:#e26f46; stroke-linecap:butt; stroke-linejoin:round; stroke-width:4; stroke-opacity:1; fill:none" points="
  253.483,1197.39 260.299,1191.19 267.116,1184.79 273.932,1178.23 280.749,1171.53 287.565,1164.71 294.382,1157.79 301.198,1150.82 308.015,1143.81 314.831,1136.8 
  321.648,1129.81 328.464,1122.88 335.28,1116.02 342.097,1109.28 348.913,1102.69 355.73,1096.26 362.546,1090.04 369.363,1084.05 376.179,1078.31 382.996,1072.87 
  389.812,1067.73 396.629,1062.94 403.445,1058.51 410.262,1054.47 417.078,1050.84 423.895,1047.65 430.711,1044.91 437.528,1042.64 444.344,1040.87 451.161,1039.59 
  457.977,1038.84 464.794,1038.62 471.61,1038.94 478.427,1039.81 485.243,1041.23 492.06,1043.21 498.876,1045.76 505.693,1048.86 512.509,1052.51 519.326,1056.72 
  526.142,1061.48 532.959,1066.77 539.775,1072.58 546.592,1078.9 553.408,1085.71 560.225,1093 567.041,1100.74 573.858,1108.91 580.674,1117.48 587.49,1126.44 
  594.307,1135.74 601.123,1145.36 607.94,1155.27 614.756,1165.43 621.573,1175.8 628.389,1186.35 635.206,1197.04 642.022,1207.82 648.839,1218.66 655.655,1229.52 
  662.472,1240.34 669.288,1251.09 676.105,1261.72 682.921,1272.19 689.738,1282.44 696.554,1292.44 703.371,1302.13 710.187,1311.47 717.004,1320.42 723.82,1328.92 
  730.637,1336.94 737.453,1344.43 744.27,1351.35 751.086,1357.65 757.903,1363.29 764.719,1368.23 771.536,1372.44 778.352,1375.88 785.169,1378.51 791.985,1380.3 
  798.802,1381.22 805.618,1381.24 812.435,1380.33 819.251,1378.48 826.068,1375.65 832.884,1371.83 839.7,1367 846.517,1361.15 853.333,1354.27 860.15,1346.35 
  866.966,1337.38 873.783,1327.37 880.599,1316.32 887.416,1304.22 894.232,1291.09 901.049,1276.93 907.865,1261.77 914.682,1245.62 921.498,1228.49 928.315,1210.42 
  935.131,1191.42 941.948,1171.53 948.764,1150.78 955.581,1129.2 962.397,1106.83 969.214,1083.71 976.03,1059.88 982.847,1035.4 989.663,1010.3 996.48,984.638 
  1003.3,958.466 1010.11,931.837 1016.93,904.808 1023.75,877.435 1030.56,849.779 1037.38,821.9 1044.2,793.859 1051.01,765.719 1057.83,737.544 1064.64,709.399 
  1071.46,681.347 1078.28,653.455 1085.09,625.788 1091.91,598.41 1098.73,571.387 1105.54,544.783 1112.36,518.661 1119.18,493.086 1125.99,468.119 1132.81,443.82 
  1139.63,420.25 1146.44,397.466 1153.26,375.524 1160.08,354.478 1166.89,334.382 1173.71,315.284 1180.52,297.233 1187.34,280.274 1194.16,264.449 1200.97,249.798 
  1207.79,236.358 1214.61,224.163 1221.42,213.244 1228.24,203.628 1235.06,195.34 1241.87,188.401 1248.69,182.829 1255.51,178.637 1262.32,175.837 1269.14,174.435 
  1275.96,174.435 1282.77,175.837 1289.59,178.637 1296.41,182.829 1303.22,188.401 1310.04,195.34 1316.85,203.628 1323.67,213.244 1330.49,224.163 1337.3,236.358 
  1344.12,249.798 1350.94,264.449 1357.75,280.274 1364.57,297.233 1371.39,315.284 1378.2,334.382 1385.02,354.478 1391.84,375.524 1398.65,397.466 1405.47,420.25 
  1412.29,443.82 1419.1,468.119 1425.92,493.086 1432.73,518.661 1439.55,544.783 1446.37,571.387 1453.18,598.41 1460,625.788 1466.82,653.455 1473.63,681.347 
  1480.45,709.399 1487.27,737.544 1494.08,765.719 1500.9,793.859 1507.72,821.9 1514.53,849.779 1521.35,877.435 1528.17,904.808 1534.98,931.837 1541.8,958.466 
  1548.62,984.638 1555.43,1010.3 1562.25,1035.4 1569.06,1059.88 1575.88,1083.71 1582.7,1106.83 1589.51,1129.2 1596.33,1150.78 1603.15,1171.53 1609.96,1191.42 
  1616.78,1210.42 1623.6,1228.49 1630.41,1245.62 1637.23,1261.77 1644.05,1276.93 1650.86,1291.09 1657.68,1304.22 1664.5,1316.32 1671.31,1327.37 1678.13,1337.38 
  1684.94,1346.35 1691.76,1354.27 1698.58,1361.15 1705.39,1367 1712.21,1371.83 1719.03,1375.65 1725.84,1378.48 1732.66,1380.33 1739.48,1381.24 1746.29,1381.22 
  1753.11,1380.3 1759.93,1378.51 1766.74,1375.88 1773.56,1372.44 1780.38,1368.23 1787.19,1363.29 1794.01,1357.65 1800.83,1351.35 1807.64,1344.43 1814.46,1336.94 
  1821.27,1328.92 1828.09,1320.42 1834.91,1311.47 1841.72,1302.13 1848.54,1292.44 1855.36,1282.44 1862.17,1272.19 1868.99,1261.72 1875.81,1251.09 1882.62,1240.34 
  1889.44,1229.52 1896.26,1218.66 1903.07,1207.82 1909.89,1197.04 1916.71,1186.35 1923.52,1175.8 1930.34,1165.43 1937.15,1155.27 1943.97,1145.36 1950.79,1135.74 
  1957.6,1126.44 1964.42,1117.48 1971.24,1108.91 1978.05,1100.74 1984.87,1093 1991.69,1085.71 1998.5,1078.9 2005.32,1072.58 2012.14,1066.77 2018.95,1061.48 
  2025.77,1056.72 2032.59,1052.51 2039.4,1048.86 2046.22,1045.76 2053.04,1043.21 2059.85,1041.23 2066.67,1039.81 2073.48,1038.94 2080.3,1038.62 2087.12,1038.84 
  2093.93,1039.59 2100.75,1040.87 2107.57,1042.64 2114.38,1044.91 2121.2,1047.65 2128.02,1050.84 2134.83,1054.47 2141.65,1058.51 2148.47,1062.94 2155.28,1067.73 
  2162.1,1072.87 2168.92,1078.31 2175.73,1084.05 2182.55,1090.04 2189.36,1096.26 2196.18,1102.69 2203,1109.28 2209.81,1116.02 2216.63,1122.88 2223.45,1129.81 
  2230.26,1136.8 2237.08,1143.81 2243.9,1150.82 2250.71,1157.79 2257.53,1164.71 2264.35,1171.53 2271.16,1178.23 2277.98,1184.79 2284.8,1191.19 2291.61,1197.39 
  
  "/>
<path clip-path="url(#clip450)" d="
M1739.98 250.738 L2280.74 250.738 L2280.74 95.2176 L1739.98 95.2176  Z
  " fill="#ffffff" fill-rule="evenodd" fill-opacity="1"/>
<polyline clip-path="url(#clip450)" style="stroke:#000000; stroke-linecap:butt; stroke-linejoin:round; stroke-width:4; stroke-opacity:1; fill:none" points="
  1739.98,250.738 2280.74,250.738 2280.74,95.2176 1739.98,95.2176 1739.98,250.738 
  "/>
<circle clip-path="url(#clip450)" cx="1836" cy="147.058" r="23" fill="#009af9" fill-rule="evenodd" fill-opacity="1" stroke="#000000" stroke-opacity="1" stroke-width="5.12"/>
<path clip-path="url(#clip450)" d="M1950.93 142.347 L1950.93 128.319 L1955.19 128.319 L1955.19 164.338 L1950.93 164.338 L1950.93 160.449 Q1949.59 162.763 1947.53 163.898 Q1945.49 165.009 1942.62 165.009 Q1937.92 165.009 1934.96 161.259 Q1932.02 157.509 1932.02 151.398 Q1932.02 145.287 1934.96 141.537 Q1937.92 137.787 1942.62 137.787 Q1945.49 137.787 1947.53 138.921 Q1949.59 140.032 1950.93 142.347 M1936.41 151.398 Q1936.41 156.097 1938.34 158.782 Q1940.28 161.444 1943.66 161.444 Q1947.04 161.444 1948.98 158.782 Q1950.93 156.097 1950.93 151.398 Q1950.93 146.699 1948.98 144.037 Q1947.04 141.352 1943.66 141.352 Q1940.28 141.352 1938.34 144.037 Q1936.41 146.699 1936.41 151.398 Z" fill="#000000" fill-rule="evenodd" fill-opacity="1" /><path clip-path="url(#clip450)" d="M1975.74 151.305 Q1970.58 151.305 1968.59 152.486 Q1966.6 153.666 1966.6 156.514 Q1966.6 158.782 1968.08 160.125 Q1969.59 161.444 1972.16 161.444 Q1975.7 161.444 1977.83 158.944 Q1979.98 156.421 1979.98 152.254 L1979.98 151.305 L1975.74 151.305 M1984.24 149.546 L1984.24 164.338 L1979.98 164.338 L1979.98 160.402 Q1978.52 162.763 1976.35 163.898 Q1974.17 165.009 1971.02 165.009 Q1967.04 165.009 1964.68 162.787 Q1962.34 160.541 1962.34 156.791 Q1962.34 152.416 1965.26 150.194 Q1968.2 147.972 1974.01 147.972 L1979.98 147.972 L1979.98 147.555 Q1979.98 144.615 1978.04 143.018 Q1976.11 141.398 1972.62 141.398 Q1970.4 141.398 1968.29 141.93 Q1966.18 142.463 1964.24 143.527 L1964.24 139.592 Q1966.58 138.69 1968.78 138.25 Q1970.97 137.787 1973.06 137.787 Q1978.68 137.787 1981.46 140.703 Q1984.24 143.62 1984.24 149.546 Z" fill="#000000" fill-rule="evenodd" fill-opacity="1" /><path clip-path="url(#clip450)" d="M1997.22 131.051 L1997.22 138.412 L2006 138.412 L2006 141.722 L1997.22 141.722 L1997.22 155.796 Q1997.22 158.967 1998.08 159.87 Q1998.96 160.773 2001.62 160.773 L2006 160.773 L2006 164.338 L2001.62 164.338 Q1996.69 164.338 1994.82 162.509 Q1992.94 160.657 1992.94 155.796 L1992.94 141.722 L1989.82 141.722 L1989.82 138.412 L1992.94 138.412 L1992.94 131.051 L1997.22 131.051 Z" fill="#000000" fill-rule="evenodd" fill-opacity="1" /><path clip-path="url(#clip450)" d="M2023.38 151.305 Q2018.22 151.305 2016.23 152.486 Q2014.24 153.666 2014.24 156.514 Q2014.24 158.782 2015.72 160.125 Q2017.22 161.444 2019.79 161.444 Q2023.34 161.444 2025.47 158.944 Q2027.62 156.421 2027.62 152.254 L2027.62 151.305 L2023.38 151.305 M2031.88 149.546 L2031.88 164.338 L2027.62 164.338 L2027.62 160.402 Q2026.16 162.763 2023.98 163.898 Q2021.81 165.009 2018.66 165.009 Q2014.68 165.009 2012.32 162.787 Q2009.98 160.541 2009.98 156.791 Q2009.98 152.416 2012.9 150.194 Q2015.84 147.972 2021.65 147.972 L2027.62 147.972 L2027.62 147.555 Q2027.62 144.615 2025.67 143.018 Q2023.75 141.398 2020.26 141.398 Q2018.03 141.398 2015.93 141.93 Q2013.82 142.463 2011.88 143.527 L2011.88 139.592 Q2014.22 138.69 2016.41 138.25 Q2018.61 137.787 2020.7 137.787 Q2026.32 137.787 2029.1 140.703 Q2031.88 143.62 2031.88 149.546 Z" fill="#000000" fill-rule="evenodd" fill-opacity="1" /><polyline clip-path="url(#clip450)" style="stroke:#e26f46; stroke-linecap:butt; stroke-linejoin:round; stroke-width:4; stroke-opacity:1; fill:none" points="
  1763.98,198.898 1908.01,198.898 
  "/>
<path clip-path="url(#clip450)" d="M1939.42 182.891 L1939.42 190.252 L1948.2 190.252 L1948.2 193.562 L1939.42 193.562 L1939.42 207.636 Q1939.42 210.807 1940.28 211.71 Q1941.16 212.613 1943.82 212.613 L1948.2 212.613 L1948.2 216.178 L1943.82 216.178 Q1938.89 216.178 1937.02 214.349 Q1935.14 212.497 1935.14 207.636 L1935.14 193.562 L1932.02 193.562 L1932.02 190.252 L1935.14 190.252 L1935.14 182.891 L1939.42 182.891 Z" fill="#000000" fill-rule="evenodd" fill-opacity="1" /><path clip-path="url(#clip450)" d="M1968.82 194.233 Q1968.1 193.817 1967.25 193.631 Q1966.41 193.423 1965.4 193.423 Q1961.79 193.423 1959.84 195.784 Q1957.92 198.122 1957.92 202.52 L1957.92 216.178 L1953.64 216.178 L1953.64 190.252 L1957.92 190.252 L1957.92 194.28 Q1959.26 191.918 1961.41 190.784 Q1963.57 189.627 1966.65 189.627 Q1967.09 189.627 1967.62 189.696 Q1968.15 189.743 1968.8 189.858 L1968.82 194.233 Z" fill="#000000" fill-rule="evenodd" fill-opacity="1" /><path clip-path="url(#clip450)" d="M1972.85 205.946 L1972.85 190.252 L1977.11 190.252 L1977.11 205.784 Q1977.11 209.465 1978.54 211.316 Q1979.98 213.145 1982.85 213.145 Q1986.3 213.145 1988.29 210.946 Q1990.3 208.747 1990.3 204.951 L1990.3 190.252 L1994.56 190.252 L1994.56 216.178 L1990.3 216.178 L1990.3 212.196 Q1988.75 214.557 1986.69 215.715 Q1984.66 216.849 1981.95 216.849 Q1977.48 216.849 1975.16 214.071 Q1972.85 211.293 1972.85 205.946 M1983.57 189.627 L1983.57 189.627 Z" fill="#000000" fill-rule="evenodd" fill-opacity="1" /><path clip-path="url(#clip450)" d="M2025.51 202.15 L2025.51 204.233 L2005.93 204.233 Q2006.21 208.631 2008.57 210.946 Q2010.95 213.238 2015.19 213.238 Q2017.64 213.238 2019.93 212.636 Q2022.25 212.034 2024.52 210.83 L2024.52 214.858 Q2022.22 215.83 2019.82 216.34 Q2017.41 216.849 2014.93 216.849 Q2008.73 216.849 2005.1 213.238 Q2001.48 209.627 2001.48 203.469 Q2001.48 197.104 2004.91 193.377 Q2008.36 189.627 2014.19 189.627 Q2019.42 189.627 2022.46 193.006 Q2025.51 196.363 2025.51 202.15 M2021.25 200.9 Q2021.21 197.405 2019.28 195.321 Q2017.39 193.238 2014.24 193.238 Q2010.67 193.238 2008.52 195.252 Q2006.39 197.266 2006.07 200.923 L2021.25 200.9 Z" fill="#000000" fill-rule="evenodd" fill-opacity="1" /><path clip-path="url(#clip450)" d="M2060.7 180.159 L2060.7 183.701 L2056.62 183.701 Q2054.33 183.701 2053.43 184.627 Q2052.55 185.553 2052.55 187.96 L2052.55 190.252 L2059.56 190.252 L2059.56 193.562 L2052.55 193.562 L2052.55 216.178 L2048.27 216.178 L2048.27 193.562 L2044.19 193.562 L2044.19 190.252 L2048.27 190.252 L2048.27 188.446 Q2048.27 184.118 2050.28 182.15 Q2052.29 180.159 2056.67 180.159 L2060.7 180.159 Z" fill="#000000" fill-rule="evenodd" fill-opacity="1" /><path clip-path="url(#clip450)" d="M2063.82 205.946 L2063.82 190.252 L2068.08 190.252 L2068.08 205.784 Q2068.08 209.465 2069.52 211.316 Q2070.95 213.145 2073.82 213.145 Q2077.27 213.145 2079.26 210.946 Q2081.28 208.747 2081.28 204.951 L2081.28 190.252 L2085.53 190.252 L2085.53 216.178 L2081.28 216.178 L2081.28 212.196 Q2079.72 214.557 2077.66 215.715 Q2075.63 216.849 2072.92 216.849 Q2068.45 216.849 2066.14 214.071 Q2063.82 211.293 2063.82 205.946 M2074.54 189.627 L2074.54 189.627 Z" fill="#000000" fill-rule="evenodd" fill-opacity="1" /><path clip-path="url(#clip450)" d="M2115.86 200.529 L2115.86 216.178 L2111.6 216.178 L2111.6 200.668 Q2111.6 196.988 2110.16 195.159 Q2108.73 193.33 2105.86 193.33 Q2102.41 193.33 2100.42 195.53 Q2098.43 197.729 2098.43 201.525 L2098.43 216.178 L2094.15 216.178 L2094.15 190.252 L2098.43 190.252 L2098.43 194.28 Q2099.96 191.942 2102.02 190.784 Q2104.1 189.627 2106.81 189.627 Q2111.28 189.627 2113.57 192.405 Q2115.86 195.159 2115.86 200.529 Z" fill="#000000" fill-rule="evenodd" fill-opacity="1" /><path clip-path="url(#clip450)" d="M2143.01 191.247 L2143.01 195.229 Q2141.21 194.233 2139.38 193.747 Q2137.57 193.238 2135.72 193.238 Q2131.58 193.238 2129.28 195.877 Q2126.99 198.492 2126.99 203.238 Q2126.99 207.983 2129.28 210.622 Q2131.58 213.238 2135.72 213.238 Q2137.57 213.238 2139.38 212.752 Q2141.21 212.242 2143.01 211.247 L2143.01 215.182 Q2141.23 216.016 2139.31 216.432 Q2137.41 216.849 2135.26 216.849 Q2129.4 216.849 2125.95 213.168 Q2122.5 209.488 2122.5 203.238 Q2122.5 196.895 2125.97 193.261 Q2129.47 189.627 2135.53 189.627 Q2137.5 189.627 2139.38 190.043 Q2141.25 190.437 2143.01 191.247 Z" fill="#000000" fill-rule="evenodd" fill-opacity="1" /><path clip-path="url(#clip450)" d="M2154.63 182.891 L2154.63 190.252 L2163.4 190.252 L2163.4 193.562 L2154.63 193.562 L2154.63 207.636 Q2154.63 210.807 2155.49 211.71 Q2156.37 212.613 2159.03 212.613 L2163.4 212.613 L2163.4 216.178 L2159.03 216.178 Q2154.1 216.178 2152.22 214.349 Q2150.35 212.497 2150.35 207.636 L2150.35 193.562 L2147.22 193.562 L2147.22 190.252 L2150.35 190.252 L2150.35 182.891 L2154.63 182.891 Z" fill="#000000" fill-rule="evenodd" fill-opacity="1" /><path clip-path="url(#clip450)" d="M2169.01 190.252 L2173.27 190.252 L2173.27 216.178 L2169.01 216.178 L2169.01 190.252 M2169.01 180.159 L2173.27 180.159 L2173.27 185.553 L2169.01 185.553 L2169.01 180.159 Z" fill="#000000" fill-rule="evenodd" fill-opacity="1" /><path clip-path="url(#clip450)" d="M2192.22 193.238 Q2188.8 193.238 2186.81 195.923 Q2184.82 198.585 2184.82 203.238 Q2184.82 207.891 2186.78 210.576 Q2188.77 213.238 2192.22 213.238 Q2195.63 213.238 2197.62 210.553 Q2199.61 207.867 2199.61 203.238 Q2199.61 198.631 2197.62 195.946 Q2195.63 193.238 2192.22 193.238 M2192.22 189.627 Q2197.78 189.627 2200.95 193.238 Q2204.12 196.849 2204.12 203.238 Q2204.12 209.604 2200.95 213.238 Q2197.78 216.849 2192.22 216.849 Q2186.65 216.849 2183.47 213.238 Q2180.33 209.604 2180.33 203.238 Q2180.33 196.849 2183.47 193.238 Q2186.65 189.627 2192.22 189.627 Z" fill="#000000" fill-rule="evenodd" fill-opacity="1" /><path clip-path="url(#clip450)" d="M2232.73 200.529 L2232.73 216.178 L2228.47 216.178 L2228.47 200.668 Q2228.47 196.988 2227.04 195.159 Q2225.6 193.33 2222.73 193.33 Q2219.28 193.33 2217.29 195.53 Q2215.3 197.729 2215.3 201.525 L2215.3 216.178 L2211.02 216.178 L2211.02 190.252 L2215.3 190.252 L2215.3 194.28 Q2216.83 191.942 2218.89 190.784 Q2220.97 189.627 2223.68 189.627 Q2228.15 189.627 2230.44 192.405 Q2232.73 195.159 2232.73 200.529 Z" fill="#000000" fill-rule="evenodd" fill-opacity="1" /></svg>
